<svg width="18" height="18" viewBox="0 0 18 18" fill="none" xmlns="http://www.w3.org/2000/svg">
<path d="M16.0031 13.4769L17.2853 14.7057L14.7057 17.2853L13.4769 16.0031L13.4769 16.0031L13.4724 15.9985L9.39089 11.8481L9.03736 11.4887L8.68084 11.8452L4.53052 15.9955L3.23686 17.2892L0.710847 14.7094L1.99691 13.4769L1.99699 13.477L2.00451 13.4695L6.08604 9.38795L6.43665 9.03734L6.08898 8.68381L2.00745 4.53349L2.00746 4.53348L2.00451 4.53052L0.707107 3.23312L3.23312 0.707107L4.53052 2.00451L4.53051 2.00452L4.53349 2.00745L8.68381 6.08898L9.03734 6.43665L9.38795 6.08604L13.4695 2.00451L13.4696 2.00459L13.4769 1.99691L14.7094 0.710847L17.2892 3.23686L15.9955 4.53052L11.8452 8.68084L11.4887 9.03736L11.8481 9.39089L15.9985 13.4724L15.9984 13.4724L16.0031 13.4769Z" fill="black" stroke="#F8EAEA"/>
</svg>
