<svg width="75" height="75" viewBox="0 0 75 75" fill="none" xmlns="http://www.w3.org/2000/svg">
<circle cx="37.5" cy="37.5" r="37" stroke="#F8E9E9"/>
<path d="M32.67 26H42.33C46.01 26 49 28.99 49 32.67V42.33C49 44.099 48.2973 45.7955 47.0464 47.0464C45.7955 48.2973 44.099 49 42.33 49H32.67C28.99 49 26 46.01 26 42.33V32.67C26 30.901 26.7027 29.2045 27.9536 27.9536C29.2045 26.7027 30.901 26 32.67 26ZM32.44 28.3C31.342 28.3 30.289 28.7362 29.5126 29.5126C28.7362 30.289 28.3 31.342 28.3 32.44V42.56C28.3 44.8485 30.1515 46.7 32.44 46.7H42.56C43.658 46.7 44.711 46.2638 45.4874 45.4874C46.2638 44.711 46.7 43.658 46.7 42.56V32.44C46.7 30.1515 44.8485 28.3 42.56 28.3H32.44ZM43.5375 30.025C43.9187 30.025 44.2844 30.1765 44.554 30.446C44.8236 30.7156 44.975 31.0813 44.975 31.4625C44.975 31.8437 44.8236 32.2094 44.554 32.479C44.2844 32.7485 43.9187 32.9 43.5375 32.9C43.1562 32.9 42.7906 32.7485 42.521 32.479C42.2514 32.2094 42.1 31.8437 42.1 31.4625C42.1 31.0813 42.2514 30.7156 42.521 30.446C42.7906 30.1765 43.1562 30.025 43.5375 30.025ZM37.5 31.75C39.025 31.75 40.4875 32.3558 41.5659 33.4341C42.6442 34.5125 43.25 35.975 43.25 37.5C43.25 39.025 42.6442 40.4875 41.5659 41.5659C40.4875 42.6442 39.025 43.25 37.5 43.25C35.975 43.25 34.5125 42.6442 33.4341 41.5659C32.3558 40.4875 31.75 39.025 31.75 37.5C31.75 35.975 32.3558 34.5125 33.4341 33.4341C34.5125 32.3558 35.975 31.75 37.5 31.75ZM37.5 34.05C36.585 34.05 35.7075 34.4135 35.0605 35.0605C34.4135 35.7075 34.05 36.585 34.05 37.5C34.05 38.415 34.4135 39.2925 35.0605 39.9395C35.7075 40.5865 36.585 40.95 37.5 40.95C38.415 40.95 39.2925 40.5865 39.9395 39.9395C40.5865 39.2925 40.95 38.415 40.95 37.5C40.95 36.585 40.5865 35.7075 39.9395 35.0605C39.2925 34.4135 38.415 34.05 37.5 34.05Z" fill="#F8E9E9"/>
</svg>
