<svg width="75" height="75" viewBox="0 0 75 75" fill="none" xmlns="http://www.w3.org/2000/svg">
<circle cx="37.5" cy="37.5" r="37" stroke="#F8E9E9"/>
<path d="M52.8707 35.106C52.0333 30.5647 47.6068 30 47.6068 30H27.7832C27.1289 30 27.0476 30.8871 27.0476 30.8871C27.0476 30.8871 26.9588 39.0292 27.0238 44.0296C27.2014 46.7243 29.8252 47 29.8252 47C29.8252 47 38.781 46.9744 42.7882 46.9455C45.4294 46.4719 45.6948 44.0929 45.6677 42.7945C50.3823 43.0613 53.7081 39.6473 52.8707 35.106ZM40.887 39.0092C39.5372 40.6244 36.5418 43.4292 36.5418 43.4292C36.5418 43.4292 36.4107 43.5615 36.206 43.4548C36.1237 43.3914 36.089 43.3548 36.089 43.3548C35.6091 42.8645 32.4404 39.9652 31.7189 38.9591C30.9508 37.8863 30.5912 35.9576 31.6203 34.8348C32.6505 33.7119 34.8757 33.6275 36.3468 35.2872C36.3468 35.2872 38.0422 33.3062 40.1038 34.2166C42.1664 35.1282 42.0884 37.564 40.887 39.0092ZM47.5743 39.5405C46.569 39.6695 45.7522 39.5717 45.7522 39.5717V33.2561H47.6697C47.6697 33.2561 49.8049 33.8687 49.8049 36.1888C49.8049 38.3155 48.7378 39.1537 47.5743 39.5405Z" fill="#F8E9E9"/>
</svg>
