<svg width="75" height="75" viewBox="0 0 75 75" fill="none" xmlns="http://www.w3.org/2000/svg">
<circle cx="37.5" cy="37.5" r="37" stroke="#F8E9E9"/>
<path d="M49 31.2353C48.1534 31.6265 47.2409 31.8835 46.2954 32.0065C47.2629 31.4141 48.0105 30.4753 48.3623 29.3465C47.4498 29.9053 46.4383 30.2965 45.3719 30.52C44.5033 29.5588 43.283 29 41.8977 29C39.3141 29 37.2032 31.1459 37.2032 33.7947C37.2032 34.1747 37.2471 34.5435 37.3241 34.89C33.4101 34.6888 29.925 32.7776 27.6052 29.8829C27.1984 30.5871 26.9675 31.4141 26.9675 32.2859C26.9675 33.9512 27.7921 35.4265 29.0674 36.2647C28.2868 36.2647 27.5612 36.0412 26.9235 35.7059V35.7394C26.9235 38.0641 28.5507 40.0088 30.7055 40.4447C30.0137 40.6372 29.2874 40.664 28.5837 40.5229C28.8823 41.4757 29.4671 42.3094 30.2559 42.9068C31.0447 43.5042 31.9979 43.8353 32.9814 43.8535C31.3142 45.1952 29.2477 45.9204 27.1214 45.91C26.7476 45.91 26.3738 45.8876 26 45.8429C28.0889 47.2065 30.5736 48 33.2342 48C41.8977 48 46.6582 40.6906 46.6582 34.3535C46.6582 34.1412 46.6582 33.94 46.6472 33.7276C47.5707 33.0571 48.3623 32.2076 49 31.2353Z" fill="#F8E9E9"/>
</svg>
